<?xml version="1.0" encoding="UTF-8" standalone="no"?>
<!-- Created with Inkscape (http://www.inkscape.org/) -->

<svg
   width="210mm"
   height="297mm"
   viewBox="0 0 210 297"
   version="1.1"
   id="svg1"
   xml:space="preserve"
   xmlns="http://www.w3.org/2000/svg"
   xmlns:svg="http://www.w3.org/2000/svg"><defs
     id="defs1" /><g
     id="layer1"
     transform="translate(-7.7286245,-34.226766)"><path
       style="fill:#212529;fill-opacity:1;stroke-width:0.264583"
       d="m 73.605948,241.72474 -8.709601,89.67427 97.820613,0.43118 -10.16322,-89.2801 c 0,0 -39.93664,6.53523 -78.947792,-0.82535 z"
       id="path1" /><path
       style="fill:#212529;fill-opacity:1;stroke:#ffffff;stroke-width:6.965;stroke-linecap:round;stroke-dasharray:none;stroke-opacity:1"
       d="m 98.112264,281.64743 c 0,0 14.312996,8.84803 28.365756,-0.26025"
       id="path6" /><g
       id="g5"
       transform="translate(11.327284,89.355005)"><path
         style="fill:#212529;fill-opacity:1;stroke:#ffffff;stroke-width:16.075;stroke-linecap:round;stroke-dasharray:none;stroke-opacity:1"
         d="m 79.405497,236.68493 h 4.09694"
         id="path7"
         transform="translate(0.08163832,-65.801102)" /><path
         style="fill:#212529;fill-opacity:1;stroke:#ffffff;stroke-width:16.075;stroke-linecap:round;stroke-dasharray:none;stroke-opacity:1"
         d="m 105.72454,171.27306 h 4.09694"
         id="path7-2" /><g
         id="g6"
         transform="translate(8.5246554,-19.137547)"><ellipse
           style="fill:#000000;fill-opacity:1;stroke-width:0.264583"
           id="path4"
           cx="69.7714"
           cy="190.25026"
           rx="5.3999038"
           ry="5.5300221" /><ellipse
           style="fill:#000000;fill-opacity:1;stroke-width:0.264583"
           id="path4-2"
           cx="95.810837"
           cy="190.52216"
           rx="5.3999038"
           ry="5.5300221" /></g></g><path
       style="display:inline;fill:#212529;fill-opacity:1;stroke-width:0.264583"
       d="m 138.27139,193.32341 6.2565,29.8104 34.96283,12.51301 c -68.45353,54.10037 -136.907063,2.57621 -136.171006,1.10409 l 38.643124,-14.35316 8.464684,-29.07434 c 0,0 28.338288,4.04832 47.843868,0"
       id="path2" /></g></svg>
