<?xml version="1.0" encoding="UTF-8"?>
<!-- Created with Inkscape (http://www.inkscape.org/) -->
<svg width="210mm" height="297mm" version="1.1" viewBox="0 0 210 297" xml:space="preserve" xmlns="http://www.w3.org/2000/svg"><g transform="translate(-7.7286 -34.227)"><path d="m73.606 241.72-8.7096 89.674 97.821 0.43118-10.163-89.28s-39.937 6.5352-78.948-0.82535z" fill="#212529" stroke="#fff" stroke-linecap="round" stroke-linejoin="round" stroke-width=".865"/><path d="m98.112 281.65s14.313 8.848 28.366-0.26025" fill="#212529" stroke="#fff" stroke-linecap="round" stroke-width="6.965"/><g transform="translate(11.327 89.355)"><path transform="translate(.081638 -65.801)" d="m79.405 236.68h4.0969" fill="#212529" stroke="#fff" stroke-linecap="round" stroke-width="16.075"/><path d="m105.72 171.27h4.0969" fill="#212529" stroke="#fff" stroke-linecap="round" stroke-width="16.075"/><g transform="translate(8.5247 -19.138)" stroke-width=".26458"><ellipse cx="69.771" cy="190.25" rx="5.3999" ry="5.53"/><ellipse cx="95.811" cy="190.52" rx="5.3999" ry="5.53"/></g></g><path d="m138.27 193.32 6.2565 29.81 34.963 12.513c-68.454 54.1-136.91 2.5762-136.17 1.1041l38.643-14.353 8.4647-29.074s28.338 4.0483 47.844 0" fill="#212529" stroke="#fff" stroke-linecap="round" stroke-linejoin="round" stroke-width=".865"/></g></svg>
